<?xml version="1.0"?>
<svg xmlns="http://www.w3.org/2000/svg" width="566.76" height="442.174" viewBox="0 0 566.76 442.174">
  <defs>
    <clipPath id="a">
      <path d="M384.887 270.875a60.579 60.579 0 1 0 60.579-60.575c-73.031 0-60.579 27.123-60.579 60.579" style="fill:none" />
    </clipPath>
    <style>.b,.d,.e,.i,.p{fill:none}.b{stroke:#dcecff;stroke-width:50px}.b,.d{stroke-linecap:round;stroke-linejoin:round}.c{fill:#282f89;fill-rule:evenodd}.d,.e{stroke:#0357ff}.d{stroke-width:1.999px}.i,.p{stroke-miterlimit:10}.i{stroke:#3d57d6;stroke-width:1.583px}.l{fill:#5e79e1}.m{fill:#8b9eec}.n{fill:#435acf}.p{stroke:#ffb318;stroke-width:1.329px}.q{fill:#ffb318}.v{fill:#f3f4f5}.x{fill:#d0d8e0}</style>
  </defs>
  <path class="b" d="m416.14 96.779-46.456-46.457M416.14 97.32l-46.457 46.457" />
  <path class="c" d="M7.67 153.526a184.927 184.927 0 0 0 1.46 85.87l31.637-.538a158.452 158.452 0 0 0 15.148 35.009l-21.921 22.668a190.934 190.934 0 0 0 61.753 59.702l21.92-22.694a158.395 158.395 0 0 0 35.491 13.962l.538 31.625a184.927 184.927 0 0 0 85.87-1.46l-.538-31.624a158.252 158.252 0 0 0 35.01-15.16l22.68 21.934a190.772 190.772 0 0 0 59.679-61.766l-22.668-21.911a159.038 159.038 0 0 0 13.95-35.503l31.635-.538a185.36 185.36 0 0 0-1.46-85.87l-31.636.538a159.039 159.039 0 0 0-15.149-35.01l21.911-22.666a190.772 190.772 0 0 0-61.742-59.702l-21.92 22.693a158.245 158.245 0 0 0-35.505-13.96l-.538-31.626a184.927 184.927 0 0 0-85.87 1.46l.538 31.625a158.388 158.388 0 0 0-34.996 15.16L90.268 33.81a190.934 190.934 0 0 0-59.69 61.766l22.68 21.91a158.453 158.453 0 0 0-13.95 35.503z" />
  <path class="c" d="M251.69 261.164a143.455 143.455 0 0 0 1.133 66.614l24.543-.417a122.918 122.918 0 0 0 11.75 27.158l-17.005 17.585a148.121 148.121 0 0 0 47.906 46.315l17.005-17.604a122.876 122.876 0 0 0 27.532 10.835l.417 24.528a143.455 143.455 0 0 0 66.614-1.133l-.417-24.533a122.764 122.764 0 0 0 27.158-11.765l17.594 17.016a147.991 147.991 0 0 0 46.3-47.915l-17.588-16.992a123.375 123.375 0 0 0 10.82-27.547l24.544-.418a143.794 143.794 0 0 0-1.133-66.614l-24.543.418a123.375 123.375 0 0 0-11.75-27.158l16.996-17.58a147.991 147.991 0 0 0-47.9-46.315l-17.006 17.604a122.757 122.757 0 0 0-27.542-10.835l-.417-24.533a143.458 143.458 0 0 0-66.614 1.133l.417 24.537a122.869 122.869 0 0 0-27.148 11.765l-17.595-17.016a148.121 148.121 0 0 0-46.305 47.916l17.594 16.996a122.918 122.918 0 0 0-10.82 27.542z" />
  <path class="d" d="m112.487 83.632-29.149-.179M94.174 102.619l28.116.172M139.611 102.843l28.116.172M94.058 121.715l58.398.36M169.775 122.127l93.811.577M93.94 140.814l43.941.271M155.199 141.136l98.869.608M93.823 159.91l94.58.581M205.722 160.543l93.793.577M93.705 179.008l71.464.438M178.016 179.498l74.328.456M265.193 180.006l49.989.306M111.783 198.216l-29.149-.179M111.664 217.312l-29.149-.179" />
  <g>
    <path class="d" d="m93.354 236.299 59.176.364M165.377 236.715l22.195.136M200.419 236.903l18.799.116M93.236 255.395l49.302.304M159.857 255.751l22.41.139" />
  </g>
  <path class="d" d="m111.313 274.606-29.149-.179" />
  <path class="e" d="M292.272 426.457c-10.67-9.139-25.61-25.275-30.55-46.808M275.399 424.117c-10.521-10.044-16.096-19.364-19.134-34.179" />
  <path d="M51.36 29.858a20 20 0 0 1 34.608 0l33.958 58.594a20 20 0 0 1-17.3 30.028H34.707A20 20 0 0 1 17.4 88.452z" transform="rotate(90 271.503 295.257)" style="fill:#dcecff" />
  <g transform="translate(-21.378 -29.666)">
    <g transform="translate(4.236 27)">
      <path d="M196.485 214.6a60.579 60.579 0 1 1-60.579 60.579 60.579 60.579 0 0 1 60.579-60.579" style="fill:#f2b03e" />
      <ellipse cx="34.512" cy="34.817" rx="34.512" ry="34.817" transform="translate(161.346 241.205)" style="stroke-miterlimit:10;stroke:#000;stroke-width:1.381px;fill:none" />
      <ellipse class="i" cx="34.512" cy="34.817" rx="34.512" ry="34.817" transform="translate(161.346 241.205)" />
      <path d="M195.859 262.539a13.484 13.484 0 1 1-13.365 13.483 13.425 13.425 0 0 1 13.365-13.483" style="fill:#fff" />
      <path class="i" d="M195.858 249.588a.632.632 0 1 1-.626.632.629.629 0 0 1 .626-.632zM198.226 241.754v-7.014h2.644a2.528 2.528 0 1 0 0-5.055h-10.439a2.528 2.528 0 1 0 0 5.055h3.06v7.014M193.739 274.028l11.836-15.806a.411.411 0 0 1 .706.411l-7.65 18.243a2.835 2.835 0 0 1-3.7 1.537 2.914 2.914 0 0 1-.341-.169 2.883 2.883 0 0 1-.848-4.216zM179.918 245.193l-3.191-6.865M180.307 237.1l-6.805 3.219" />
      <path d="M146.416 235.72a4.441 4.441 0 1 1 0 .028z" style="fill:#4ea79b" />
      <path class="l" d="M384.19 222.312c2.087-2.324 4.216-4.6 6.418-6.806a79.828 79.828 0 0 1 105.747-6.358l29.878-4.58 4.405-28.736a127.357 127.357 0 0 0-173.654 6.051 219.613 219.613 0 0 0-6.213 6.507l28.9 4.429zM132.264 321.246a79.961 79.961 0 0 1 6.357-105.74 80.814 80.814 0 0 1 7.192-6.358l-29.878-4.58-4.4-28.736c-2.229 1.944-4.421 3.94-6.532 6.051-47.56 47.562-49.552 123.659-6.045 173.653l28.731-4.4z" />
      <path class="m" d="M145.808 209.148a79.829 79.829 0 0 1 105.748 6.358c2.2 2.2 4.329 4.484 6.416 6.807l4.521-29.494 28.9-4.429a217.079 217.079 0 0 0-6.212-6.507 127.358 127.358 0 0 0-173.655-6.051l4.4 28.736zM509.9 321.248a79.8 79.8 0 0 1-112.03 13.612l-.07-.055-29.884 4.58-4.4 28.732a127.347 127.347 0 0 0 173.653-6.048c2.116-2.116 4.108-4.307 6.044-6.532l-28.731-4.4z" />
      <path class="n" d="M537.171 181.883c-2.111-2.111-4.3-4.107-6.533-6.051l-4.405 28.736-29.878 4.58a80.812 80.812 0 0 1 7.192 6.358 79.96 79.96 0 0 1 6.353 105.742l4.581 29.885 28.731 4.4c43.509-49.991 41.515-126.088-6.044-173.65M244.364 334.8a79.684 79.684 0 0 1-112.1-13.56l-4.58 29.887-28.731 4.4c1.936 2.225 3.929 4.417 6.045 6.533a127.35 127.35 0 0 0 173.653 6.049l-4.4-28.733z" />
      <path class="m" d="M347.538 256q2.8 4.628 5.566 9.184c9.676-15.483 19.576-30.06 31.086-42.871l-4.52-29.493-28.9-4.429a288.7 288.7 0 0 0-25.375 32.273c7.845 11.7 15.055 23.61 22.143 35.336M294.63 287.964q-2.8-4.633-5.568-9.185c-11.425 18.294-23.16 35.323-37.506 49.667a80.173 80.173 0 0 1-7.2 6.359l29.882 4.58 4.4 28.733c2.225-1.936 4.416-3.931 6.534-6.049a271.746 271.746 0 0 0 31.592-38.757c-7.826-11.683-15.033-23.6-22.134-35.348" />
      <path class="l" d="M291.392 188.39c20.141 21.874 35.325 46.951 50.036 71.288 15.4 25.472 29.941 49.532 49.178 68.768a80.335 80.335 0 0 0 7.2 6.359l-29.884 4.58-4.4 28.732c-2.226-1.936-4.417-3.93-6.535-6.048-23.323-23.317-40.063-51.011-56.253-77.794-13.634-22.555-26.614-43.991-42.762-61.962l4.521-29.494z" />
      <path d="M513.564 35.551a41.6 41.6 0 1 1-41.6 41.6 41.6 41.6 0 0 1 41.6-41.6" transform="translate(-129.373 51.418)" style="fill:#2b2bb2" />
      <path class="p" d="M392.547 119.986a12.133 12.133 0 0 0-20.712 8.579M375.388 137.144a12.133 12.133 0 0 0 20.712-8.579" />
      <path class="q" d="m377.901 128.565-5.843 5.843-5.843-5.843zM390.48 128.566l5.847-5.848 5.843 5.843z" />
    </g>
    <circle class="q" cx="61" cy="61" r="61" transform="translate(394 237)" />
    <g style="clip-path:url(#a)" transform="translate(10 27.704)">
      <path class="l" d="M561.34 226.646v98.809a6 6 0 0 1-6 6H401.55a6 6 0 0 1-6-6v-98.809a6 6 0 0 1 6-6h153.79a6 6 0 0 1 6 6" />
      <path d="M401.843 225.209a.94.94 0 1 1-.94.94.94.94 0 0 1 .94-.94" style="fill:#da9fa5" />
      <path d="M405.154 225.209a.94.94 0 1 1-.94.94.94.94 0 0 1 .94-.94" style="fill:#f5cc55" />
      <path d="M408.465 225.209a.94.94 0 1 1-.94.94.94.94 0 0 1 .94-.94" style="fill:#122794" />
      <path class="v" d="M403.61 229.829h149.613a2.842 2.842 0 0 1 0 5.684H403.61a2.842 2.842 0 0 1 0-5.684M401.623 245.793h38.081v78.255h-38.081zM442.535 245.793h111.033v78.255H442.535z" />
      <path d="M451.054 262.591v22.489h91.754v-16.611s-5.936 5.061-9.593 5.061c-5.976 0-9.413-4-13.666-3.919-6.018.114-7.389 3.514-12.053 3.919-6.113.531-8.1-7.267-16-7.726s-11.055 8.563-18.456 8.032c-5.576-.4-10.556-9.867-14.228-11.244a13.089 13.089 0 0 0-7.758 0" style="fill:#f1ab42" />
      <path class="m" d="M407.116 252.223h8.48v8.512h-8.48zM407.116 265.855h8.48v8.512h-8.48zM407.116 279.488h8.48V288h-8.48zM407.116 293.121h8.48v8.512h-8.48zM407.116 306.753h8.48v8.512h-8.48z" />
      <path class="x" d="M483.466 295.201h27.391v19.514h-27.391zM451.054 295.201h27.391v19.514h-27.391zM515.418 295.201h27.391v19.514h-27.391zM418.771 255.805h15.871v1.87h-15.871zM418.771 269.438h15.871v1.87h-15.871zM418.771 282.738h15.871v1.87h-15.871zM418.771 296.371h15.871v1.87h-15.871zM418.771 309.837h15.871v1.87h-15.871z" />
    </g>
    <circle cx="20" cy="20" r="20" transform="translate(476 314)" style="fill:#01a99d" />
    <path d="m467.568 312.278 8.173 8.173 13.726-13.726" transform="translate(18 21)" style="stroke:#fff;stroke-width:4px;fill:none" />
  </g>
</svg>